<svg width="80" height="82" viewBox="0 0 80 82" fill="none" xmlns="http://www.w3.org/2000/svg">
<path d="M37.5936 15.973L37.5219 15.9074C33.682 12.3873 28.3023 11.0878 23.279 12.4668C16.8982 14.2184 10.3114 15.106 3.69466 15.106H1.50045C0.166344 15.106 -0.501702 16.719 0.441547 17.6624L2.17691 19.3977C3.42589 20.6467 5.12001 21.3484 6.8864 21.3484H8.47822C10.2446 21.3484 11.9387 22.0501 13.1877 23.2991C14.4367 24.5481 16.1308 25.2498 17.8972 25.2498H21.1363C22.9027 25.2498 24.5968 25.9515 25.8458 27.2004L26.7562 28.1109C28.0051 29.3598 29.6993 30.0615 31.4657 30.0615H37.5936V15.973Z" fill="#62A4FB"/>
<path d="M38.1077 43.6754C38.8698 43.4233 39.2449 42.7247 39.9803 42.2066C39.8798 42.1756 39.7794 42.1449 39.6794 42.1143C34.2735 40.4587 28.9017 38.6915 23.5687 36.8143C22.7873 36.5392 21.9746 36.2413 21.41 35.6349C20.2131 34.35 20.8858 31.8827 22.569 31.383C23.9357 30.9772 25.3432 31.7303 26.7412 32.0088C27.9131 32.2422 29.1828 32.1224 30.2119 31.515C31.2409 30.9075 31.9852 29.7735 31.969 28.5786C31.9451 26.8122 30.2904 25.3963 28.5511 25.0863C26.8119 24.7763 25.0383 25.3217 23.4001 25.983C22.3996 26.3869 21.4177 26.6715 20.4583 27.165C19.591 27.6111 18.819 28.1656 18.1762 28.8888C16.915 30.3079 16.1244 32.0362 16.1381 33.9627C16.1526 35.9883 17.0681 37.9911 18.5903 39.3276C20.0701 40.6269 22.0026 41.2609 23.8764 41.8673C26.9431 42.8595 30.0061 43.8635 33.0656 44.878C35.2735 45.3624 36.5213 44.2002 38.1077 43.6754Z" fill="#A2F5C3"/>
<path d="M42.3156 15.973L42.3872 15.9074C46.2272 12.3873 51.6068 11.0878 56.6301 12.4668C63.0108 14.2184 69.5975 15.106 76.2143 15.106H78.4084C79.7425 15.106 80.4105 16.719 79.4673 17.6624L77.7319 19.3977C76.4829 20.6467 74.7888 21.3484 73.0224 21.3484H71.4306C69.6642 21.3484 67.9701 22.0501 66.7211 23.2991C65.4721 24.5481 63.778 25.2498 62.0116 25.2498H58.7725C57.0061 25.2498 55.312 25.9515 54.0631 27.2004L53.1528 28.1109C51.9038 29.3598 50.2097 30.0615 48.4433 30.0615H42.3156V15.973Z" fill="#62A4FB"/>
<path d="M78.4085 15.106H76.2145C75.3075 15.106 74.4013 15.0877 73.496 15.0544L72.7825 15.7678C71.5336 17.0168 69.8394 17.7185 68.073 17.7185H66.4812C64.7148 17.7185 63.0207 18.4202 61.7717 19.6691C60.5228 20.9181 58.8286 21.6198 57.0623 21.6198H53.8232C52.0568 21.6198 50.3627 22.3215 49.1137 23.5705L48.2034 24.4809C46.9545 25.7299 45.2603 26.4316 43.494 26.4316H42.3158V30.0614H48.4437C50.2101 30.0614 51.9042 29.3597 53.1531 28.1107L54.0634 27.2003C55.3124 25.9513 57.0065 25.2496 58.7729 25.2496H62.012C63.7784 25.2496 65.4723 24.5479 66.7215 23.2989C67.9704 22.0499 69.6645 21.3482 71.4309 21.3482H73.0228C74.7891 21.3482 76.4833 20.6465 77.7322 19.3976L79.4676 17.6622C80.4109 16.7191 79.7426 15.106 78.4085 15.106Z" fill="#5392F9"/>
<path d="M47.5819 65.0596C46.4143 63.859 45.0432 62.8916 43.6152 62.007H42.9891C42.0867 62.3355 41.1997 62.7078 40.3278 63.1079C39.9242 63.2931 39.5238 63.4848 39.1263 63.6828C38.9951 63.7481 38.865 63.8151 38.7346 63.8816C38.6713 63.9154 38.4197 64.0469 38.3449 64.0875C39.5228 64.6447 40.7038 65.1977 41.8414 65.829C43.7069 66.8641 45.5413 68.216 46.3626 70.1852C47.0128 71.7444 46.9394 73.4695 46.5745 75.1448C46.3819 76.0285 47.3887 76.6965 48.1135 76.1559C49.4667 75.1465 50.3552 73.4396 50.445 71.7222C50.575 69.2382 49.3161 66.843 47.5819 65.0596Z" fill="#BED9FD"/>
<path d="M45.3557 5.40244C45.3557 2.41876 42.9374 0 39.9546 0C36.9717 0 34.5536 2.41876 34.5536 5.40244C34.5536 7.53164 35.7856 9.37243 37.5749 10.2527V79.6291C37.5749 80.9386 38.6365 82.0001 39.946 82.0001C41.2555 82.0001 42.3171 80.9386 42.3171 79.6291V10.2616C44.1158 9.38481 45.3557 7.53857 45.3557 5.40244Z" fill="#BED9FD"/>
<path d="M39.9545 0C39.0623 0 38.2213 0.217787 37.4797 0.601059C39.2172 1.49894 40.406 3.31135 40.406 5.40244C40.406 7.4932 39.2169 9.30364 37.4799 10.2017C37.5119 10.2182 37.5426 10.2367 37.5749 10.2527V58.4815L35.925 60.2435L37.5749 62.5958V79.6292C37.5749 80.9388 38.6364 82.0003 39.946 82.0003C41.2555 82.0003 42.317 80.9388 42.317 79.6292V47.9882L43.9669 45.8574L42.317 42.2689V10.2616C44.1159 9.38481 45.3557 7.53873 45.3557 5.40261C45.3557 2.41876 42.9374 0 39.9545 0V0Z" fill="#9EC8FC"/>
<path d="M63.4577 32.5105C63.1754 31.0756 62.4275 29.7519 61.3881 28.7248C60.4818 27.8292 59.3538 27.159 58.1197 26.8371C57.5384 26.6855 56.9367 26.6048 56.375 26.3917C55.7746 26.1637 55.2402 25.7919 54.6593 25.5179C53.6514 25.0425 52.5024 24.8713 51.3996 25.0325C49.5766 25.2988 47.7984 26.7358 47.7604 28.5778C47.7324 29.9423 48.6852 31.211 49.9224 31.787C51.1597 32.363 52.619 32.3194 53.9218 31.9126C54.8066 31.6362 55.6808 31.195 56.6049 31.2663C57.6621 31.348 58.6103 32.1678 58.8829 33.1926C59.1555 34.2173 58.7583 35.3777 57.9408 36.053C57.3864 36.511 56.6864 36.7463 56.0037 36.972C49.9079 38.9888 43.8122 41.0055 37.7165 43.0224C35.6849 43.6945 33.6057 44.3919 31.9349 45.7289C29.3988 47.7581 28.4107 50.834 28.6248 53.982C28.8492 57.2785 30.9736 59.7824 33.6514 61.5711C34.8948 62.4015 36.2269 63.0769 37.5767 63.7234V58.4816C37.3487 58.3495 37.1205 58.2175 36.8925 58.0855C35.9209 57.5229 34.9278 56.9424 34.2116 56.0779C32.7451 54.3077 32.8402 51.443 34.4208 49.7739C35.4983 48.636 37.0515 48.1055 38.5399 47.615L42.3169 46.3703L44.5649 47.2794L46.6322 44.9483L56.3488 41.7462C57.8575 41.249 59.3959 40.7366 60.6664 39.7833C62.8565 38.1401 63.9862 35.1969 63.4577 32.5105Z" fill="#BED9FD"/>
<path d="M49.8687 48.0904C48.9896 46.6749 48.0514 45.7939 46.6322 44.948C44.4746 45.6591 44.3837 45.6949 42.3169 46.37L42.3207 47.9881C43.2687 48.3268 44.1998 48.7266 44.9491 49.3888C46.426 50.6936 46.928 52.997 46.0948 54.7829C45.5961 55.8518 44.7012 56.6832 43.761 57.396C41.8486 58.8459 39.6805 59.9131 37.5802 61.0746C35.4799 62.236 33.4038 63.5255 31.806 65.3162C30.2081 67.1068 29.1251 69.4764 29.3387 71.8669C29.4839 73.4904 30.3287 75.0777 31.595 76.0661C32.3223 76.6337 33.3615 75.9978 33.1749 75.0943C32.8242 73.3966 32.6988 71.6657 33.3508 70.092C34.2198 67.9946 36.2772 66.6625 38.2901 65.6128C42.5178 63.4084 47.3791 61.5937 49.802 57.4872C50.1732 56.8579 50.4686 56.183 50.6844 55.4831C51.4413 53.0284 51.2204 50.2667 49.8687 48.0904Z" fill="#A2F5C3"/>
</svg>
