<svg width="30" height="32" viewBox="0 0 30 32" fill="none" xmlns="http://www.w3.org/2000/svg">
<path d="M28.1252 1.9223e-06H22.5002C21.9824 1.9223e-06 21.5627 0.419752 21.5627 0.937503C21.5627 1.45525 21.9824 1.875 22.5002 1.875H25.8619L20.8024 6.93451C19.1839 5.72026 17.1746 5.00001 15.0002 5.00001C12.8257 5.00001 10.8164 5.72026 9.198 6.93451L7.12406 4.86051L8.99312 4.35969C9.49325 4.22569 9.79 3.71163 9.656 3.2115C9.522 2.71144 9.008 2.4145 8.50781 2.54863L6.63875 3.04944L7.13956 1.18038C7.27356 0.680252 6.97681 0.16619 6.47669 0.0321894C5.97631 -0.101936 5.46244 0.19494 5.3285 0.695065L4.82769 2.56413L3.56775 1.30425C3.20162 0.938128 2.608 0.938128 2.24194 1.30425C1.87581 1.67038 1.87581 2.26394 2.24194 2.63007L3.50187 3.89L1.63281 4.39082C1.13269 4.52482 0.835937 5.03888 0.969937 5.53901C1.08212 5.95788 1.46094 6.23413 1.87487 6.23413C1.95519 6.23413 2.03681 6.22369 2.11812 6.20194L3.98719 5.70113L3.48637 7.57019C3.35237 8.07032 3.64912 8.58438 4.14925 8.71838C4.23056 8.7402 4.31212 8.75057 4.3925 8.75057C4.80644 8.75057 5.18525 8.47432 5.29744 8.05544L5.79825 6.18638L7.81206 8.2002C6.25944 9.91876 5.31269 12.1946 5.31269 14.6875C5.31269 19.713 9.15925 23.8564 14.0627 24.3295V27H11.2502C10.7324 27 10.3127 27.4198 10.3127 27.9375C10.3127 28.4553 10.7324 28.875 11.2502 28.875H14.0627V31.0625C14.0627 31.5803 14.4824 32 15.0002 32C15.5179 32 15.9377 31.5803 15.9377 31.0625V28.875H18.7502C19.2679 28.875 19.6877 28.4553 19.6877 27.9375C19.6877 27.4198 19.2679 27 18.7502 27H15.9377V24.3295C20.8411 23.8565 24.6877 19.713 24.6877 14.6875C24.6877 12.1946 23.7409 9.9187 22.1884 8.20013L27.1877 3.20082V6.56251C27.1877 7.08026 27.6074 7.50001 28.1252 7.50001C28.6429 7.50001 29.0627 7.08026 29.0627 6.56251V0.937503C29.0627 0.419752 28.6429 1.9223e-06 28.1252 1.9223e-06ZM22.8127 14.6875C22.8127 18.9953 19.308 22.5 15.0002 22.5C10.6924 22.5 7.18769 18.9953 7.18769 14.6875C7.18769 10.3797 10.6924 6.87501 15.0002 6.87501C19.308 6.87501 22.8127 10.3797 22.8127 14.6875Z" />
</svg>
