<svg width="20" height="32" viewBox="0 0 20 32" fill="none" xmlns="http://www.w3.org/2000/svg">
<path d="M19.6875 9.6875C19.6875 4.34581 15.3417 0 10 0C4.65831 0 0.3125 4.34581 0.3125 9.6875C0.3125 14.7129 4.15906 18.8564 9.0625 19.3295V25.75H5.625C5.10725 25.75 4.6875 26.1698 4.6875 26.6875C4.6875 27.2052 5.10725 27.625 5.625 27.625H9.0625V31.0625C9.0625 31.5802 9.48225 32 10 32C10.5177 32 10.9375 31.5802 10.9375 31.0625V27.625H14.375C14.8927 27.625 15.3125 27.2052 15.3125 26.6875C15.3125 26.1698 14.8927 25.75 14.375 25.75H10.9375V19.3295C15.8409 18.8564 19.6875 14.7129 19.6875 9.6875ZM2.1875 9.6875C2.1875 5.37969 5.69219 1.875 10 1.875C14.3078 1.875 17.8125 5.37969 17.8125 9.6875C17.8125 13.9953 14.3078 17.5 10 17.5C5.69219 17.5 2.1875 13.9953 2.1875 9.6875Z" />
</svg>
