<svg width="32" height="32" viewBox="0 0 32 32" fill="none" xmlns="http://www.w3.org/2000/svg">
<path d="M31.0625 0H22.3125C21.7948 0 21.375 0.41975 21.375 0.9375C21.375 1.45525 21.7948 1.875 22.3125 1.875H28.7992L17.9802 12.694C16.0113 11.0314 13.5443 10.125 10.9375 10.125C8.016 10.125 5.26937 11.2627 3.2035 13.3285C1.13762 15.3943 0 18.141 0 21.0625C0 23.984 1.13769 26.7306 3.2035 28.7965C5.26931 30.8624 8.016 32 10.9375 32C13.859 32 16.6056 30.8623 18.6715 28.7965C20.7374 26.7307 21.875 23.984 21.875 21.0625C21.875 18.4557 20.9686 15.9888 19.306 14.0198L30.125 3.20081V9.6875C30.125 10.2052 30.5448 10.625 31.0625 10.625C31.5802 10.625 32 10.2052 32 9.6875V0.9375C32 0.41975 31.5802 0 31.0625 0ZM17.3457 27.4707C15.634 29.1823 13.3582 30.125 10.9375 30.125C8.51681 30.125 6.241 29.1823 4.52931 27.4707C2.81769 25.759 1.875 23.4832 1.875 21.0625C1.875 18.6418 2.81769 16.366 4.52931 14.6543C6.241 12.9427 8.51681 12 10.9375 12C13.3582 12 15.634 12.9427 17.3457 14.6543C19.0573 16.366 20 18.6418 20 21.0625C20 23.4832 19.0573 25.759 17.3457 27.4707Z" />
</svg>
